{
	"asset":{
		"generator":"Khronos glTF Blender I/O v4.1.63",
		"version":"2.0"
	},
	"scene":0,
	"scenes":[
		{
			"name":"Scene",
			"nodes":[
				0,
				1
			]
		}
	],
	"nodes":[
		{
			"mesh":0,
			"name":"Cube"
		},
		{
			"mesh":1,
			"name":"Cube.001"
		}
	],
	"materials":[
		{
			"doubleSided":true,
			"name":"Material",
			"pbrMetallicRoughness":{
				"baseColorFactor":[
					0.800000011920929,
					0.800000011920929,
					0.800000011920929,
					1
				],
				"metallicFactor":0,
				"roughnessFactor":0.5
			}
		}
	],
	"meshes":[
		{
			"name":"Cube",
			"primitives":[
				{
					"attributes":{
						"POSITION":0
					},
					"indices":1,
					"material":0
				}
			]
		},
		{
			"name":"Cube.001",
			"primitives":[
				{
					"attributes":{
						"POSITION":2
					},
					"indices":3
				}
			]
		}
	],
	"accessors":[
		{
			"bufferView":0,
			"componentType":5126,
			"count":8,
			"max":[
				1,
				1,
				3.1957240104675293
			],
			"min":[
				-1,
				-1,
				1.1957240104675293
			],
			"type":"VEC3"
		},
		{
			"bufferView":1,
			"componentType":5123,
			"count":36,
			"type":"SCALAR"
		},
		{
			"bufferView":2,
			"componentType":5126,
			"count":8,
			"max":[
				1,
				1,
				-1.2470605373382568
			],
			"min":[
				-1,
				-1,
				-3.247060537338257
			],
			"type":"VEC3"
		},
		{
			"bufferView":3,
			"componentType":5123,
			"count":36,
			"type":"SCALAR"
		}
	],
	"bufferViews":[
		{
			"buffer":0,
			"byteLength":96,
			"byteOffset":0,
			"target":34962
		},
		{
			"buffer":0,
			"byteLength":72,
			"byteOffset":96,
			"target":34963
		},
		{
			"buffer":0,
			"byteLength":96,
			"byteOffset":168,
			"target":34962
		},
		{
			"buffer":0,
			"byteLength":72,
			"byteOffset":264,
			"target":34963
		}
	],
	"buffers":[
		{
			"byteLength":336,
			"uri":"2cubes.bin"
		}
	]
}
