# Blender 4.1.1
# www.blender.org
mtllib test.mtl
o Cube
v 1.000000 2.630863 1.254151
v 1.000000 2.630863 1.254151
v 1.000000 2.630863 1.254151
v 1.000000 0.630863 1.254151
v 1.000000 0.630863 1.254151
v 1.000000 0.630863 1.254151
v 1.000000 2.630863 3.254151
v 1.000000 2.630863 3.254151
v 1.000000 2.630863 3.254151
v 1.000000 0.630863 3.254151
v 1.000000 0.630863 3.254151
v 1.000000 0.630863 3.254151
v -1.000000 2.630863 1.254151
v -1.000000 2.630863 1.254151
v -1.000000 2.630863 1.254151
v -1.000000 0.630863 1.254151
v -1.000000 0.630863 1.254151
v -1.000000 0.630863 1.254151
v -1.000000 2.630863 3.254151
v -1.000000 2.630863 3.254151
v -1.000000 2.630863 3.254151
v -1.000000 0.630863 3.254151
v -1.000000 0.630863 3.254151
v -1.000000 0.630863 3.254151
vn -0.0000 1.0000 -0.0000
vn -0.0000 -0.0000 1.0000
vn -1.0000 -0.0000 -0.0000
vn -0.0000 -1.0000 -0.0000
vn 1.0000 -0.0000 -0.0000
vn -0.0000 -0.0000 -1.0000
vt 0.625000 0.500000
vt 0.875000 0.500000
vt 0.875000 0.750000
vt 0.625000 0.750000
vt 0.375000 0.750000
vt 0.625000 1.000000
vt 0.375000 1.000000
vt 0.375000 0.000000
vt 0.625000 0.000000
vt 0.625000 0.250000
vt 0.375000 0.250000
vt 0.125000 0.500000
vt 0.375000 0.500000
vt 0.125000 0.750000
s 0
usemtl Material.001
f 2/1/1 14/2/1 20/3/1
f 2/1/1 20/3/1 8/4/1
f 10/5/2 7/4/2 19/6/2
f 10/5/2 19/6/2 22/7/2
f 24/8/3 21/9/3 15/10/3
f 24/8/3 15/10/3 18/11/3
f 17/12/4 5/13/4 11/5/4
f 17/12/4 11/5/4 23/14/4
f 6/13/5 3/1/5 9/4/5
f 6/13/5 9/4/5 12/5/5
f 16/11/6 13/10/6 1/1/6
f 16/11/6 1/1/6 4/13/6
o Cube.001
v -1.000000 0.630863 -1.052786
v -1.000000 0.630863 -1.052786
v -1.000000 0.630863 -1.052786
v -1.000000 2.630863 -1.052786
v -1.000000 2.630863 -1.052786
v -1.000000 2.630863 -1.052786
v -1.000000 0.630863 -3.052786
v -1.000000 0.630863 -3.052786
v -1.000000 0.630863 -3.052786
v -1.000000 2.630863 -3.052786
v -1.000000 2.630863 -3.052786
v -1.000000 2.630863 -3.052786
v 1.000000 0.630863 -1.052786
v 1.000000 0.630863 -1.052786
v 1.000000 0.630863 -1.052786
v 1.000000 2.630863 -1.052786
v 1.000000 2.630863 -1.052786
v 1.000000 2.630863 -1.052786
v 1.000000 0.630863 -3.052786
v 1.000000 0.630863 -3.052786
v 1.000000 0.630863 -3.052786
v 1.000000 2.630863 -3.052786
v 1.000000 2.630863 -3.052786
v 1.000000 2.630863 -3.052786
vn -1.0000 -0.0000 -0.0000
vn -0.0000 -0.0000 -1.0000
vn 1.0000 -0.0000 -0.0000
vn -0.0000 -0.0000 1.0000
vn -0.0000 -1.0000 -0.0000
vn -0.0000 1.0000 -0.0000
vt 0.375000 0.000000
vt 0.625000 0.000000
vt 0.625000 0.250000
vt 0.375000 0.250000
vt 0.625000 0.500000
vt 0.375000 0.500000
vt 0.625000 0.750000
vt 0.375000 0.750000
vt 0.625000 1.000000
vt 0.375000 1.000000
vt 0.125000 0.500000
vt 0.125000 0.750000
vt 0.875000 0.500000
vt 0.875000 0.750000
s 0
f 27/15/7 30/16/7 36/17/7
f 27/15/7 36/17/7 33/18/7
f 31/18/8 34/17/8 46/19/8
f 31/18/8 46/19/8 43/20/8
f 45/20/9 48/19/9 42/21/9
f 45/20/9 42/21/9 39/22/9
f 37/22/10 40/21/10 28/23/10
f 37/22/10 28/23/10 25/24/10
f 32/25/11 44/20/11 38/22/11
f 32/25/11 38/22/11 26/26/11
f 47/19/12 35/27/12 29/28/12
f 47/19/12 29/28/12 41/21/12
